# File created by Blade
# Date/Time:  Tue Apr 07 21:32:54 2015
#---------------------------------------------------------
:version 1.10
:name HOM
:units
  mass 1.0
  length 1.000000
  angle deg
:documentation
     Acclaim Skeleton File
:root
   axis xyz
   order TX TY TZ RX RY RZ
   position 0.000000 0.000000 0.000000
   orientation 0 0 0
:bonedata
   begin
      id 1
      name Spine_dum
      direction 0.000000 1.000000 0.000000
      length 4.885285
      axis 0.0 0.0 0.0 xyz
   end
   begin
      id 2
      name LeftUpLeg_dum
      direction 1.000000 0.000000 0.000000
      length 2.672193
      axis 0.0 0.0 0.0 xyz
   end
   begin
      id 3
      name RightUpLeg_dum
      direction -1.000000 0.000000 0.000000
      length 2.672193
      axis 0.0 0.0 0.0 xyz
   end
   begin
      id 4
      name Spine
      direction 0.000000 1.000000 0.000000
      length 0.000000
      axis 0.0 0.0 0.0 xyz
      dof rx ry rz
   end
   begin
      id 5
      name Spine_dum1
      direction 0.000000 1.000000 0.000000
      length 16.494159
      axis 0.0 0.0 0.0 xyz
   end
   begin
      id 6
      name Spine_dum2
      direction 0.000000 1.000000 0.000000
      length 10.663448
      axis 0.0 0.0 0.0 xyz
   end
   begin
      id 7
      name Spine_dum3
      direction 0.000000 1.000000 0.000000
      length 10.663448
      axis 0.0 0.0 0.0 xyz
   end
   begin
      id 8
      name Head
      direction 0.000000 1.000000 0.000000
      length 4.527550
      axis 0.0 0.0 0.0 xyz
      dof rx ry rz
   end
   begin
      id 9
      name LeftShoulder
      direction 1.000000 0.000000 0.000000
      length 7.531907
      axis 0.0 0.0 -90.0 xyz
      dof rx ry rz
   end
   begin
      id 10
      name LeftArm
      direction 1.000000 0.000000 0.000000
      length 10.229199
      axis 0.0 0.0 -90.0 xyz
      dof rx ry rz
   end
   begin
      id 11
      name LeftForeArm
      direction 1.000000 0.000000 0.000000
      length 8.673495
      axis 0.0 0.0 -90.0 xyz
      dof ry rz rx
   end
   begin
      id 12
      name LeftHand
      direction 0.000000 0.000000 0.000000
      length 0.000000
      axis 0.0 0.0 -90.0 xyz
      dof rx ry rz
   end
   begin
      id 13
      name LeftHand_dum1
      direction 0.000000 0.000000 0.000000
      length 0.000000
      axis 0.0 0.0 -90.0 xyz
   end
   begin
      id 14
      name LeftHand_dum2
      direction 1.000000 0.000000 0.000000
      length 3.937000
      axis 0.0 0.0 -90.0 xyz
   end
   begin
      id 15
      name LeftHandThumb1
      direction 0.000000 0.000000 1.000000
      length 3.937000
      axis 0.0 0.0 -90.0 xyz
      dof rx rz ry
   end
   begin
      id 16
      name RightShoulder
      direction -1.000000 0.000000 0.000000
      length 7.531907
      axis 0.0 0.0 90.0 xyz
      dof rx ry rz
   end
   begin
      id 17
      name RightArm
      direction -1.000000 0.000000 0.000000
      length 10.229199
      axis 0.0 0.0 90.0 xyz
      dof rx ry rz
   end
   begin
      id 18
      name RightForeArm
      direction -1.000000 0.000000 0.000000
      length 8.673495
      axis 0.0 0.0 90.0 xyz
      dof ry rz rx
   end
   begin
      id 19
      name RightHand
      direction 0.000000 0.000000 0.000000
      length 0.000000
      axis 0.0 0.0 90.0 xyz
      dof rx ry rz
   end
   begin
      id 20
      name RightHand_dum1
      direction 0.000000 0.000000 0.000000
      length 0.000000
      axis 0.0 0.0 90.0 xyz
   end
   begin
      id 21
      name RightHand_dum2
      direction -1.000000 0.000000 0.000000
      length 3.937000
      axis 0.0 0.0 90.0 xyz
   end
   begin
      id 22
      name RightHandThumb1
      direction 0.000000 0.000000 1.000000
      length 3.937000
      axis 0.0 0.0 90.0 xyz
      dof rx rz ry
   end
   begin
      id 23
      name LeftUpLeg
      direction 0.000000 -1.000000 0.000000
      length 16.263388
      axis 0.0 0.0 0.0 xyz
      dof rx ry rz
   end
   begin
      id 24
      name LeftLeg
      direction 0.000000 -1.000000 0.000000
      length 14.328163
      axis 0.0 0.0 0.0 xyz
      dof rx ry rz
   end
   begin
      id 25
      name LeftFoot
      direction 0.000000 -0.258819 0.965926
      length 5.031290
      axis 15.0 0.0 0.0 xyz
      dof rx ry rz
   end
   begin
      id 26
      name LeftToeBase
      direction 0.000000 0.000000 1.000000
      length 2.952750
      axis 0.0 0.0 0.0 xyz
      dof rx ry rz
   end
   begin
      id 27
      name RightUpLeg
      direction 0.000000 -1.000000 0.000000
      length 16.263388
      axis 0.0 0.0 0.0 xyz
      dof rx ry rz
   end
   begin
      id 28
      name RightLeg
      direction 0.000000 -1.000000 0.000000
      length 14.328163
      axis 0.0 0.0 0.0 xyz
      dof rx ry rz
   end
   begin
      id 29
      name RightFoot
      direction 0.000000 -0.258819 0.965926
      length 5.031290
      axis 15.0 0.0 0.0 xyz
      dof rx ry rz
   end
   begin
      id 30
      name RightToeBase
      direction 0.000000 0.000000 1.000000
      length 2.952750
      axis 0.0 0.0 0.0 xyz
      dof rx ry rz
   end
:hierarchy
   begin
      root Spine_dum LeftUpLeg_dum RightUpLeg_dum
      Spine_dum Spine
      LeftUpLeg_dum LeftUpLeg
      RightUpLeg_dum RightUpLeg
      Spine Spine_dum1 Spine_dum2 Spine_dum3
      Spine_dum1 Head
      Spine_dum2 LeftShoulder
      Spine_dum3 RightShoulder
      LeftShoulder LeftArm
      LeftArm LeftForeArm
      LeftForeArm LeftHand
      LeftHand LeftHand_dum1 LeftHand_dum2
      LeftHand_dum1 LeftHandThumb1
      RightShoulder RightArm
      RightArm RightForeArm
      RightForeArm RightHand
      RightHand RightHand_dum1 RightHand_dum2
      RightHand_dum1 RightHandThumb1
      LeftUpLeg LeftLeg
      LeftLeg LeftFoot
      LeftFoot LeftToeBase
      RightUpLeg RightLeg
      RightLeg RightFoot
      RightFoot RightToeBase
   end

# File created by Blade
# Date/Time:  Tue Apr 07 21:33:03 2015
# Frame Rate: 120.000 fps
#------------------------------------------------------
:FULLY-SPECIFIED
:DEGREES
237
root 16.582515 32.169762 -5.761764 17.276688 -3.065149 3.345102
Spine -6.837851 -1.009654 -5.982486
Head 13.055398 23.369476 -5.277390
LeftShoulder -23.361765 46.242410 2.302917
LeftArm 51.526012 -0.091670 -79.899928
LeftForeArm -5.720133 -0.000000 19.059277
LeftHand 4.650502 -0.000000 -6.364046
LeftHandThumb1 -26.253704 0.000000 33.147579
RightShoulder -5.487327 -10.722565 -17.957435
RightArm 11.305345 -14.790075 89.417381
RightForeArm 3.562559 0.000000 25.264237
RightHand 4.562038 0.000000 8.662779
RightHandThumb1 -24.326973 -0.000000 -32.862282
LeftUpLeg -17.837171 -5.836251 1.116966
LeftLeg 11.361957 -0.000000 -0.000000
LeftFoot -13.902981 15.653461 -17.654027
LeftToeBase -9.357501 -0.000000 0.000000
RightUpLeg -28.724470 -9.539403 -17.372331
RightLeg 26.309895 -0.000000 -0.000000
RightFoot -7.426435 -28.376583 11.536413
RightToeBase -9.837429 -0.000000 0.000000
238
root 16.751493 32.209525 -5.813920 17.199240 -3.721103 2.998269
Spine -6.908752 -0.967911 -5.752526
Head 12.810559 22.194038 -4.777060
LeftShoulder -23.271189 46.277555 2.632671
LeftArm 51.287809 -0.291501 -80.101334
LeftForeArm -5.767048 0.000000 19.907929
LeftHand 4.613458 -0.000000 -6.472029
LeftHandThumb1 -26.253704 0.000000 33.147579
RightShoulder -5.487644 -10.785855 -17.860069
RightArm 11.215085 -14.900661 89.572846
RightForeArm 3.473441 -0.000000 24.956118
RightHand 4.560467 -0.000000 8.863024
RightHandThumb1 -24.326973 -0.000000 -32.862282
LeftUpLeg -17.653335 -5.229253 0.948147
LeftLeg 11.059193 -0.000000 -0.000000
LeftFoot -13.643650 15.869846 -17.248067
LeftToeBase -9.085982 -0.000000 0.000000
RightUpLeg -28.954274 -9.456215 -16.106563
RightLeg 28.147152 -0.000000 -0.000000
RightFoot -8.823489 -27.969619 12.505651
RightToeBase -9.809061 -0.000000 0.000000
239
root 16.915439 32.245110 -5.868540 17.158732 -4.343724 2.649336
Spine -7.002617 -0.999348 -5.503775
Head 12.544106 21.124803 -4.272159
LeftShoulder -23.223439 46.339269 2.921677
LeftArm 51.048749 -0.473345 -80.269806
LeftForeArm -5.746964 -0.000000 20.784061
LeftHand 4.502212 -0.000000 -7.098191
LeftHandThumb1 -26.253704 0.000000 33.147579
RightShoulder -5.460977 -10.877710 -17.748699
RightArm 11.155920 -14.967645 89.710526
RightForeArm 3.446756 -0.000000 24.673738
RightHand 4.504248 -0.000000 8.851300
RightHandThumb1 -24.326973 -0.000000 -32.862282
LeftUpLeg -17.577519 -4.652256 0.814079
LeftLeg 10.894086 -0.000000 -0.000000
LeftFoot -13.377244 16.079980 -16.823593
LeftToeBase -9.491639 -0.000000 0.000000
RightUpLeg -29.171643 -9.304239 -14.831402
RightLeg 29.978396 -0.000000 -0.000000
RightFoot -10.189574 -27.617893 13.394847
RightToeBase -9.716380 -0.000000 0.000000
240
root 17.078071 32.274173 -5.922071 17.129089 -4.955652 2.353044
Spine -7.108811 -1.017444 -5.308878
Head 12.274013 19.958069 -3.739745
LeftShoulder -23.107936 46.387456 3.251874
LeftArm 50.798094 -0.658941 -80.393397
LeftForeArm -5.853948 -0.000000 21.626578
LeftHand 4.640901 0.000000 -7.028446
LeftHandThumb1 -26.253704 0.000000 33.147579
RightShoulder -5.498711 -10.902919 -17.627059
RightArm 11.038369 -15.081160 89.822914
RightForeArm 3.647909 -0.000000 24.389769
RightHand 4.386365 -0.000000 8.897599
RightHandThumb1 -24.326973 -0.000000 -32.862282
LeftUpLeg -17.523981 -4.096366 0.643208
LeftLeg 10.753977 -0.000000 -0.000000
LeftFoot -13.163190 16.208190 -16.426301
LeftToeBase -9.164271 -0.000000 0.000000
RightUpLeg -29.358772 -9.325355 -13.546391
RightLeg 31.784057 -0.000000 -0.000000
RightFoot -11.471450 -27.329861 13.958363
RightToeBase -10.062512 -0.000000 0.000000
241
root 17.232313 32.300628 -5.973557 17.124787 -5.499633 2.015168
Spine -7.235252 -1.116879 -5.051404
Head 12.009781 18.876107 -3.187235
LeftShoulder -23.083813 46.491796 3.461339
LeftArm 50.635574 -0.822230 -80.420737
LeftForeArm -6.071667 0.000000 22.431895
LeftHand 4.730737 -0.000000 -7.082423
LeftHandThumb1 -26.253704 0.000000 33.147579
RightShoulder -5.528233 -10.950912 -17.468734
RightArm 10.918402 -15.130509 89.897891
RightForeArm 3.819033 -0.000000 24.158913
RightHand 4.400761 -0.000000 8.905149
RightHandThumb1 -24.326973 -0.000000 -32.862282
LeftUpLeg -17.519859 -3.620082 0.563706
LeftLeg 10.659936 -0.000000 -0.000000
LeftFoot -13.041151 16.346614 -16.195910
LeftToeBase -9.632507 -0.000000 0.000000
RightUpLeg -29.439906 -9.378415 -12.188009
RightLeg 33.414002 -0.000000 -0.000000
RightFoot -12.557623 -27.042370 14.425976
RightToeBase -10.844351 -0.000000 0.000000
242
root 17.383855 32.320789 -6.021606 17.101741 -5.984520 1.741201
Spine -7.334101 -1.264081 -4.863132
Head 11.732967 17.881097 -2.563260
LeftShoulder -22.969695 46.520355 3.774530
LeftArm 50.378159 -0.978684 -80.444996
LeftForeArm -6.488292 0.000000 23.257358
LeftHand 4.899094 -0.000000 -6.582922
LeftHandThumb1 -26.253704 0.000000 33.147579
RightShoulder -5.634185 -11.102801 -17.222182
RightArm 10.908538 -15.556071 89.735667
RightForeArm 4.333154 0.000000 24.036566
RightHand 4.338946 0.000000 8.711587
RightHandThumb1 -24.326973 -0.000000 -32.862282
LeftUpLeg -17.537878 -3.376700 0.487402
LeftLeg 10.650124 -0.000000 -0.000000
LeftFoot -12.958120 16.571471 -15.953514
LeftToeBase -9.739062 -0.000000 0.000000
RightUpLeg -29.473140 -9.504130 -10.873337
RightLeg 35.070406 -0.000000 -0.000000
RightFoot -13.781241 -26.708806 15.206308
RightToeBase -11.318561 -0.000000 0.000000
243
root 17.540876 32.337565 -6.074081 17.096628 -6.494629 1.529699
Spine -7.439641 -1.411982 -4.712503
Head 11.440926 16.939845 -2.005148
LeftShoulder -22.932427 46.596284 3.964892
LeftArm 50.235952 -1.121193 -80.416979
LeftForeArm -6.660242 -0.000000 24.000963
LeftHand 4.882378 -0.000000 -6.585611
LeftHandThumb1 -26.253704 0.000000 33.147579
RightShoulder -5.709301 -11.176099 -17.029302
RightArm 10.865755 -15.427080 89.794786
RightForeArm 4.312586 -0.000000 23.755983
RightHand 4.413003 -0.000000 8.784388
RightHandThumb1 -24.326973 -0.000000 -32.862282
LeftUpLeg -17.603536 -3.175680 0.361511
LeftLeg 10.673131 -0.000000 -0.000000
LeftFoot -13.023337 16.667497 -16.181769
LeftToeBase -9.755197 -0.000000 0.000000
RightUpLeg -29.500603 -9.866092 -9.570998
RightLeg 36.632163 -0.000000 -0.000000
RightFoot -14.774632 -26.292625 15.702632
RightToeBase -11.516202 -0.000000 0.000000
